# ProBuilder 4.2.3
# https://unity3d.com/unity/features/worldbuilding/probuilder
# 10/27/2020 2:46:45 PM

mtllib ./Books.mtl
o Books

g Books
v 23.59028 4.541722 153.6728
v 23.59028 4.360739 153.446
v 23.59028 4.432535 153.6867
v 23.59028 4.648775 153.656
v 23.59028 4.750408 153.6391
v 23.59028 4.843341 153.6248
v 23.59028 4.92429 153.6159
v 23.59028 4.994349 153.6115
v 23.59028 5.056799 153.6089
v 23.59028 5.111645 153.608
v 23.59028 5.158882 153.6088
v 23.59028 5.198512 153.6113
v 23.59028 5.230536 153.6156
v 23.59028 5.254953 153.6216
v 23.59028 5.238559 153.4553
v 21.11633 4.324494 153.695
v 21.11633 4.55814 153.4481
v 21.11633 4.432533 153.6867
v 21.11633 4.648774 153.656
v 21.11633 4.750408 153.6391
v 21.11633 4.84334 153.6248
v 21.11633 4.924289 153.6159
v 21.11633 4.994349 153.6115
v 21.11633 5.056799 153.6089
v 21.11633 5.111643 153.608
v 21.11633 5.158882 153.6088
v 21.11633 5.198512 153.6113
v 21.11633 5.230536 153.6156
v 21.11633 5.238559 153.4553
v 21.11633 5.254953 153.6216
v 23.59028 2.494714 153.6728
v 23.59028 2.603901 153.6867
v 23.59028 2.675696 153.446
v 23.59028 2.38766 153.656
v 23.59028 2.286026 153.6391
v 23.59028 2.193094 153.6248
v 23.59028 2.112145 153.6159
v 23.59028 2.042086 153.6115
v 23.59028 1.979635 153.6089
v 23.59028 1.924791 153.608
v 23.59028 1.877553 153.6088
v 23.59028 1.837923 153.6113
v 23.59028 1.797876 153.4553
v 23.59028 1.781482 153.6216
v 23.59028 1.805899 153.6156
v 21.11633 2.711941 153.695
v 21.11633 2.603902 153.6867
v 21.11633 2.478295 153.4481
v 21.11633 2.387662 153.656
v 21.11633 2.286026 153.6391
v 21.11633 2.193095 153.6248
v 21.11633 2.112146 153.6159
v 21.11633 2.042086 153.6115
v 21.11633 1.979635 153.6089
v 21.11633 1.924791 153.608
v 21.11633 1.877553 153.6088
v 21.11633 1.837923 153.6113
v 21.11633 1.805899 153.6156
v 21.11633 1.781482 153.6216
v 21.11633 1.797876 153.4553
v 23.59028 3.518217 153.543
v 21.11633 3.518217 153.541
v 21.11633 3.620041 153.5789
v 23.59028 3.620042 153.5789
v 21.11633 3.720048 153.61
v 23.59028 3.720049 153.61
v 21.11633 3.820109 153.6364
v 23.59028 3.820109 153.6364
v 21.11633 3.920223 153.6581
v 23.59028 3.920223 153.6581
v 21.11633 4.02039 153.6751
v 23.59028 4.020391 153.6751
v 21.11633 4.120611 153.6874
v 23.59028 4.120611 153.6874
v 21.11633 4.220884 153.6949
v 23.59028 4.220884 153.6949
v 23.59028 4.324494 153.695
v 21.11633 4.541722 153.6728
v 23.59028 3.518217 153.4373
v 21.11633 3.518217 153.4373
v 23.59028 3.53061 153.539
v 21.11633 3.63267 153.6111
v 23.59028 3.632671 153.6111
v 21.11633 3.734502 153.6733
v 23.59028 3.734502 153.6733
v 21.11633 3.836105 153.7257
v 23.59028 3.836107 153.7257
v 21.11633 3.937479 153.7682
v 23.59028 3.937479 153.7682
v 21.11633 4.038624 153.8009
v 23.59028 4.038625 153.8009
v 21.11633 4.139539 153.8238
v 23.59028 4.13954 153.8238
v 21.11633 4.240227 153.8368
v 23.59028 4.240228 153.8368
v 21.11633 4.343801 153.8341
v 23.59028 4.343801 153.8341
v 21.11633 4.451301 153.8138
v 23.59028 4.451301 153.8138
v 21.11633 4.55961 153.7816
v 23.59028 4.55961 153.7816
v 21.11633 4.665613 153.7435
v 23.59028 4.665613 153.7435
v 21.11633 4.766194 153.7054
v 23.59028 4.766194 153.7054
v 21.11633 4.858233 153.673
v 23.59028 4.858234 153.673
v 21.11633 4.938619 153.6523
v 23.59028 4.93862 153.6523
v 21.11633 5.008388 153.6412
v 23.59028 5.008388 153.6412
v 21.11633 5.070656 153.6339
v 23.59028 5.070656 153.6339
v 21.11633 5.125422 153.6305
v 23.59028 5.125422 153.6305
v 21.11633 5.172691 153.6308
v 23.59028 5.172691 153.6308
v 21.11633 5.212456 153.635
v 23.59028 5.212456 153.635
v 21.11633 5.244723 153.643
v 23.59028 5.244723 153.643
v 21.11633 5.269489 153.6549
v 23.59028 5.269489 153.6549
v 21.11633 3.416395 153.5789
v 23.59028 3.416393 153.5789
v 21.11633 3.316387 153.61
v 23.59028 3.316386 153.61
v 21.11633 3.216326 153.6364
v 23.59028 3.216326 153.6364
v 21.11633 3.116213 153.6581
v 23.59028 3.116213 153.6581
v 21.11633 3.016046 153.6751
v 23.59028 3.016044 153.6751
v 21.11633 2.915824 153.6874
v 23.59028 2.915824 153.6874
v 21.11633 2.815551 153.6949
v 23.59028 2.815551 153.6949
v 23.59028 2.711941 153.695
v 21.11633 2.494714 153.6728
v 23.59028 3.505826 153.539
v 21.11633 3.403765 153.6111
v 23.59028 3.403764 153.6111
v 23.59028 3.301933 153.6733
v 23.59028 3.200329 153.7257
v 21.11633 3.20033 153.7257
v 21.11633 3.301933 153.6733
v 23.59028 3.098956 153.7682
v 21.11633 3.098957 153.7682
v 23.59028 2.997811 153.8009
v 21.11633 2.997812 153.8009
v 23.59028 2.896895 153.8238
v 21.11633 2.896896 153.8238
v 23.59028 2.796208 153.8368
v 21.11633 2.796209 153.8368
v 23.59028 2.692635 153.8341
v 21.11633 2.692635 153.8341
v 23.59028 2.585135 153.8138
v 21.11633 2.585135 153.8138
v 23.59028 2.476826 153.7816
v 21.11633 2.476826 153.7816
v 21.11633 2.370822 153.7435
v 23.59028 2.370822 153.7435
v 21.11633 2.270242 153.7054
v 23.59028 2.270242 153.7054
v 21.11633 2.178202 153.673
v 23.59028 2.178201 153.673
v 23.59028 2.097816 153.6523
v 21.11633 2.097817 153.6523
v 21.11633 2.028047 153.6412
v 23.59028 2.028047 153.6412
v 21.11633 1.965779 153.6339
v 23.59028 1.965779 153.6339
v 23.59028 1.911012 153.6305
v 21.11633 1.911012 153.6305
v 23.59028 1.863744 153.6308
v 21.11633 1.863744 153.6308
v 23.59028 1.823979 153.635
v 21.11633 1.823979 153.635
v 23.59028 1.791713 153.643
v 21.11633 1.791713 153.643
v 23.59028 1.766946 153.6549
v 21.11633 1.766946 153.6549

vt 0.2054903 0.210409
vt 0.1416712 0.2618147
vt 0.2095646 0.2412303
vt 0.2006075 0.1801946
vt 0.1956998 0.1515108
vt 0.191551 0.125281
vt 0.1889444 0.1024293
vt 0.187619 0.08264753
vt 0.1867912 0.06501213
vt 0.186461 0.04952296
vt 0.1866284 0.03618016
vt 0.1872932 0.02498361
vt 0.1884557 0.01593354
vt 0.1901156 0.009029713
vt 0.1431688 0.01387187
vt 0.2102667 0.2771574
vt 0.1402278 0.2114811
vt 0.2077844 0.2466532
vt 0.1988273 0.1856175
vt 0.1939196 0.1569336
vt 0.1897708 0.1307039
vt 0.1871642 0.1078521
vt 0.1858389 0.0880703
vt 0.1850111 0.07043496
vt 0.1846808 0.05494579
vt 0.1848482 0.041603
vt 0.185513 0.0304065
vt 0.1866755 0.02135625
vt 0.1413887 0.01929453
vt 0.1883354 0.01445236
vt 0.008410752 0.9901608
vt 0.00751847 0.5705551
vt 0.0241527 0.5705198
vt 0.0250451 0.9901255
vt 0.04075795 0.5704845
vt 0.04165035 0.9900901
vt 0.05733448 0.5704492
vt 0.05822676 0.9900549
vt 0.0738818 0.570414
vt 0.07477421 0.9900196
vt 0.09040028 0.5703788
vt 0.09129256 0.9899846
vt 0.1068898 0.5703438
vt 0.1077822 0.9899495
vt 0.1233503 0.5703088
vt 0.1242426 0.9899144
vt 0.1402968 0.5702727
vt 0.1411892 0.9898784
vt 0.1579006 0.5702353
vt 0.158793 0.9898409
vt 0.1756476 0.5701976
vt 0.1765397 0.9898033
vt 0.193022 0.5701606
vt 0.1939144 0.9897662
vt 0.2095093 0.5701255
vt 0.2104016 0.9897313
vt 0.2245948 0.5700934
vt 0.2254871 0.9896991
vt 0.2377635 0.5700655
vt 0.2386555 0.9896712
vt 0.2491866 0.5700413
vt 0.2500791 0.9896468
vt 0.2593797 0.5700195
vt 0.260272 0.9896251
vt 0.2683424 0.5700004
vt 0.2692347 0.9896061
vt 0.2760747 0.569984
vt 0.276967 0.9895898
vt 0.2825767 0.5699702
vt 0.2834689 0.9895759
vt 0.2878482 0.569959
vt 0.2887406 0.9895646
vt 0.2918896 0.5699504
vt 0.2927818 0.9895561
vt 0.1801443 0.4708479
vt 0.1402565 0.4960159
vt 0.1701514 0.4991246
vt 0.1683712 0.5045475
vt 0.1384763 0.5014387
vt 0.178364 0.4762707
vt 0.187026 0.4479851
vt 0.1888063 0.4425623
vt 0.1961374 0.4142675
vt 0.2021377 0.3859637
vt 0.2068072 0.3576508
vt 0.2101458 0.3293289
vt 0.2121536 0.3009981
vt 0.212047 0.2717345
vt 0.1943572 0.4196902
vt 0.2003575 0.3913865
vt 0.205027 0.3630737
vt 0.2083656 0.3347519
vt 0.2103734 0.306421
vt 0.20371 0.215832
vt 0.07951212 0.5096797
vt 0.04755986 0.5098238
vt 0.04534939 0.01982888
vt 0.07730165 0.01968488
vt 0.008084834 0.988288
vt 0.006825268 0.5699065
vt 0.02420622 0.5698542
vt 0.02546591 0.9882358
vt 0.04144722 0.5698023
vt 0.04270679 0.9881837
vt 0.05854827 0.5697508
vt 0.05980784 0.9881322
vt 0.07550925 0.5696999
vt 0.07676893 0.9880812
vt 0.09233052 0.5696491
vt 0.09359008 0.9880306
vt 0.1090117 0.5695988
vt 0.1102714 0.9879803
vt 0.1255531 0.5695491
vt 0.1268126 0.9879305
vt 0.142401 0.5694984
vt 0.1436608 0.9878798
vt 0.159705 0.5694463
vt 0.1609645 0.9878278
vt 0.1770177 0.5693942
vt 0.1782773 0.9877757
vt 0.1938928 0.5693434
vt 0.1951525 0.9877247
vt 0.2098833 0.5692953
vt 0.2111428 0.9876766
vt 0.2245427 0.569251
vt 0.2258022 0.9876325
vt 0.2374241 0.5692122
vt 0.2386836 0.9875938
vt 0.2486765 0.5691784
vt 0.249936 0.9875598
vt 0.2587466 0.5691481
vt 0.2600061 0.9875295
vt 0.2676343 0.5691214
vt 0.2688939 0.9875028
vt 0.2753398 0.5690982
vt 0.2765993 0.9874796
vt 0.2818629 0.5690786
vt 0.2831225 0.9874599
vt 0.287204 0.5690625
vt 0.2884634 0.9874439
vt 0.2913625 0.56905
vt 0.2926218 0.9874313

vn 1 0 0
vn -1 0 0
vn -0.0003814922 -0.3402597 0.9402907
vn -0.0007631123 -0.348484 0.9373145
vn 1.279952E-07 -0.3320353 0.943267
vn 1.431409E-07 -0.2970604 0.9548587
vn 7.378978E-08 -0.2552282 0.9668808
vn 0 -0.2118154 0.9773097
vn 0 -0.1895373 0.9818735
vn 3.221889E-08 -0.1671604 0.9859297
vn 2.3419E-08 -0.1215042 0.9925909
vn 0 -0.07511213 0.9971751
vn 0 -0.0008836318 0.9999996
vn -2.214745E-08 0.0766048 0.9970616
vn -3.65913E-08 0.126564 0.9919585
vn -1.829754E-08 0.1408141 0.9900361
vn -4.482239E-08 0.1550341 0.9879091
vn -4.748355E-08 0.1642388 0.9864206
vn -2.374225E-08 0.1579937 0.9874401
vn -2.924703E-08 0.1517416 0.9884202
vn -5.245863E-08 0.1088674 0.9940563
vn -1.80367E-08 0.06238654 0.9980521
vn 0 0.04223184 0.9991079
vn -4.905895E-09 0.01696889 0.9998561
vn 4.948844E-09 -0.01711748 0.9998535
vn 2.475097E-09 -0.04046234 0.999181
vn 0 -0.06378514 0.9979637
vn 0 -0.1317789 0.9912791
vn 0 -0.2385084 0.9711404
vn 0 0.9951763 -0.0981029
vn 0.001654874 -0.549426 0.8348959
vn 0.003309414 -0.5220422 0.8529132
vn 3.335286E-07 -0.5768096 0.8168786
vn 1.507223E-07 -0.5213256 0.8533579
vn 1.766467E-07 -0.4582468 0.8888251
vn 2.237524E-07 -0.3869616 0.9220958
vn 8.889881E-08 -0.3074863 0.9515525
vn 6.386772E-08 -0.2209079 0.9752947
vn 4.936318E-08 -0.1280542 0.9917672
vn -4.995928E-09 0.02592023 0.999664
vn 0 0.1857757 0.9825922
vn 0 0.2844401 0.9586938
vn 0 0.3380094 0.9411427
vn 0 0.3546191 0.9350109
vn -6.396336E-08 0.3318593 0.9433289
vn -9.635622E-08 0.24996 0.9682562
vn -3.026548E-08 0.1570259 0.9875945
vn -1.513601E-08 0.1364718 0.9906439
vn 0 0.1158588 0.9932657
vn 0 0.06284244 0.9980235
vn 0 -0.008070029 0.9999675
vn 0 -0.1045631 0.9945183
vn 0 -0.2409526 0.9705369
vn 0 -0.430891 0.902404
vn -0.0003814595 0.3402632 0.9402894
vn -0.000763111 0.3484883 0.9373128
vn 1.919943E-07 0.3320381 0.943266
vn 1.431409E-07 0.2970604 0.9548587
vn 4.919319E-08 0.2552276 0.966881
vn 0 0.2118164 0.9773095
vn 0 0.1895378 0.9818734
vn 6.443717E-08 0.1671596 0.9859298
vn 4.683778E-08 0.1215042 0.9925909
vn 0 0.0751123 0.9971751
vn 0 0.0008836298 0.9999996
vn -1.845625E-08 -0.07660489 0.9970615
vn -3.049288E-08 -0.1265644 0.9919584
vn -1.524802E-08 -0.1408142 0.9900361
vn -5.97628E-08 -0.1550335 0.9879092
vn -6.331098E-08 -0.164238 0.9864208
vn -3.655898E-08 -0.1517426 0.9884201
vn -4.451922E-08 -0.1303355 0.99147
vn -4.721285E-08 -0.1088676 0.9940563
vn -1.202438E-08 -0.0623859 0.9980521
vn -6.012497E-09 -0.05231145 0.9986308
vn 0 -0.04223168 0.9991079
vn -1.635327E-09 -0.01696904 0.9998561
vn 1.64964E-09 0.01711757 0.9998535
vn 8.250448E-10 0.0404622 0.999181
vn 0 0.06378476 0.9979637
vn 0 0.1317789 0.9912791
vn 0 0.2385128 0.9711394
vn 0 -0.9951764 -0.0981022
vn 0.001655672 0.5497236 0.835345
vn 0.003309228 0.5220454 0.8529113
vn 3.335286E-07 0.5768096 0.8168786
vn 1.32486E-07 0.4582493 0.8888237
vn 1.864594E-07 0.3869593 0.9220968
vn 1.33349E-07 0.3074879 0.951552
vn 1.170905E-07 0.2209071 0.9752948
vn 6.170409E-08 0.1280545 0.9917672
vn -4.995916E-09 -0.02592017 0.999664
vn 0 -0.1857757 0.9825922
vn 0 -0.284443 0.958693
vn 0 -0.3380054 0.9411442
vn 0 -0.354622 0.9350098
vn -7.995345E-08 -0.3318566 0.9433298
vn -1.565794E-07 -0.249961 0.9682559
vn -6.053036E-08 -0.1570254 0.9875946
vn -3.027172E-08 -0.1364713 0.990644
vn 0 -0.1158584 0.9932657
vn 0 -0.06284217 0.9980235
vn 0 0.008070111 0.9999675
vn 0 0.1045622 0.9945184
vn 0 0.2409585 0.9705355
vn 0 0.4308877 0.9024056

usemtl NoteMaterial
f 3/3/1 2/2/1 1/1/1
f 1/1/1 2/2/1 4/4/1
f 4/4/1 2/2/1 5/5/1
f 5/5/1 2/2/1 6/6/1
f 6/6/1 2/2/1 7/7/1
f 7/7/1 2/2/1 8/8/1
f 8/8/1 2/2/1 9/9/1
f 9/9/1 2/2/1 10/10/1
f 10/10/1 2/2/1 11/11/1
f 11/11/1 2/2/1 12/12/1
f 15/15/1 14/14/1 13/13/1
f 18/18/2 17/17/2 16/16/2
f 20/20/2 17/17/2 19/19/2
f 21/21/2 17/17/2 20/20/2
f 22/22/2 17/17/2 21/21/2
f 23/23/2 17/17/2 22/22/2
f 24/24/2 17/17/2 23/23/2
f 25/25/2 17/17/2 24/24/2
f 26/26/2 17/17/2 25/25/2
f 27/27/2 17/17/2 26/26/2
f 30/30/2 29/29/2 28/28/2
f 33/2/1 32/3/1 31/1/1
f 33/2/1 31/1/1 34/4/1
f 33/2/1 34/4/1 35/5/1
f 33/2/1 35/5/1 36/6/1
f 33/2/1 36/6/1 37/7/1
f 33/2/1 37/7/1 38/8/1
f 33/2/1 38/8/1 39/9/1
f 33/2/1 39/9/1 40/10/1
f 33/2/1 40/10/1 41/11/1
f 33/2/1 41/11/1 42/12/1
f 45/13/1 44/14/1 43/15/1
f 48/17/2 47/18/2 46/16/2
f 48/17/2 50/20/2 49/19/2
f 48/17/2 51/21/2 50/20/2
f 48/17/2 52/22/2 51/21/2
f 48/17/2 53/23/2 52/22/2
f 48/17/2 54/24/2 53/23/2
f 48/17/2 55/25/2 54/24/2
f 48/17/2 56/26/2 55/25/2
f 48/17/2 57/27/2 56/26/2
f 60/29/2 59/30/2 58/28/2
f 63/33/3 62/32/4 61/31/3
f 64/34/5 63/33/3 61/31/3
f 65/35/6 63/33/6 64/34/6
f 66/36/6 65/35/6 64/34/6
f 67/37/7 65/35/7 66/36/7
f 68/38/7 67/37/7 66/36/7
f 69/39/9 67/37/8 68/38/8
f 70/40/9 69/39/9 68/38/8
f 71/41/10 69/39/9 70/40/9
f 72/42/10 71/41/10 70/40/9
f 73/43/11 71/41/11 72/42/11
f 74/44/11 73/43/11 72/42/11
f 75/45/12 73/43/12 74/44/12
f 76/46/12 75/45/12 74/44/12
f 16/47/13 75/45/13 76/46/13
f 77/48/13 16/47/13 76/46/13
f 18/49/14 16/47/14 77/48/14
f 3/50/14 18/49/14 77/48/14
f 78/51/16 18/49/15 3/50/15
f 1/52/16 78/51/16 3/50/15
f 19/53/17 78/51/16 1/52/16
f 4/54/17 19/53/17 1/52/16
f 20/55/19 19/53/18 4/54/18
f 5/56/19 20/55/19 4/54/18
f 21/57/20 20/55/19 5/56/19
f 6/58/20 21/57/20 5/56/19
f 22/59/21 21/57/21 6/58/21
f 7/60/21 22/59/21 6/58/21
f 23/61/22 22/59/22 7/60/22
f 8/62/22 23/61/22 7/60/22
f 24/63/23 23/61/23 8/62/23
f 9/64/23 24/63/23 8/62/23
f 25/65/24 24/63/24 9/64/24
f 10/66/24 25/65/24 9/64/24
f 26/67/26 25/65/25 10/66/25
f 11/68/26 26/67/26 10/66/25
f 27/69/27 26/67/26 11/68/26
f 12/70/27 27/69/27 11/68/26
f 28/71/28 27/69/28 12/70/28
f 13/72/28 28/71/28 12/70/28
f 30/73/29 28/71/29 13/72/29
f 14/74/29 30/73/29 13/72/29
f 79/76/1 2/2/1 64/75/1
f 61/77/1 79/76/1 64/75/1
f 17/17/2 80/79/2 62/78/2
f 80/79/2 48/17/2 62/78/2
f 63/80/2 17/17/2 62/78/2
f 65/81/2 17/17/2 63/80/2
f 64/75/1 2/2/1 66/82/1
f 66/82/1 2/2/1 68/83/1
f 68/83/1 2/2/1 70/84/1
f 70/84/1 2/2/1 72/85/1
f 72/85/1 2/2/1 74/86/1
f 74/86/1 2/2/1 76/87/1
f 76/87/1 2/2/1 77/88/1
f 77/88/1 2/2/1 3/3/1
f 12/12/1 2/2/1 13/13/1
f 2/2/1 15/15/1 13/13/1
f 67/89/2 17/17/2 65/81/2
f 69/90/2 17/17/2 67/89/2
f 71/91/2 17/17/2 69/90/2
f 73/92/2 17/17/2 71/91/2
f 75/93/2 17/17/2 73/92/2
f 16/16/2 17/17/2 75/93/2
f 78/94/2 17/17/2 18/18/2
f 19/19/2 17/17/2 78/94/2
f 28/28/2 17/17/2 27/27/2
f 29/29/2 17/17/2 28/28/2
f 15/97/30 29/96/30 30/95/30
f 14/98/30 15/97/30 30/95/30
f 82/101/31 62/100/32 81/99/31
f 83/102/33 82/101/31 81/99/31
f 84/103/34 82/101/34 83/102/34
f 85/104/34 84/103/34 83/102/34
f 86/105/35 84/103/35 85/104/35
f 87/106/35 86/105/35 85/104/35
f 88/107/36 86/105/36 87/106/36
f 89/108/36 88/107/36 87/106/36
f 90/109/37 88/107/37 89/108/37
f 91/110/37 90/109/37 89/108/37
f 92/111/38 90/109/38 91/110/38
f 93/112/38 92/111/38 91/110/38
f 94/113/39 92/111/39 93/112/39
f 95/114/39 94/113/39 93/112/39
f 96/115/40 94/113/40 95/114/40
f 97/116/40 96/115/40 95/114/40
f 98/117/41 96/115/41 97/116/41
f 99/118/41 98/117/41 97/116/41
f 100/119/42 98/117/42 99/118/42
f 101/120/42 100/119/42 99/118/42
f 102/121/43 100/119/43 101/120/43
f 103/122/43 102/121/43 101/120/43
f 104/123/44 102/121/44 103/122/44
f 105/124/44 104/123/44 103/122/44
f 106/125/45 104/123/45 105/124/45
f 107/126/45 106/125/45 105/124/45
f 108/127/46 106/125/46 107/126/46
f 109/128/46 108/127/46 107/126/46
f 110/129/48 108/127/47 109/128/47
f 111/130/48 110/129/48 109/128/47
f 112/131/49 110/129/48 111/130/48
f 113/132/49 112/131/49 111/130/48
f 114/133/50 112/131/50 113/132/50
f 115/134/50 114/133/50 113/132/50
f 116/135/51 114/133/51 115/134/51
f 117/136/51 116/135/51 115/134/51
f 118/137/52 116/135/52 117/136/52
f 119/138/52 118/137/52 117/136/52
f 120/139/53 118/137/53 119/138/53
f 121/140/53 120/139/53 119/138/53
f 122/141/54 120/139/54 121/140/54
f 123/142/54 122/141/54 121/140/54
f 62/32/56 124/33/55 61/31/55
f 124/33/55 125/34/57 61/31/55
f 124/33/58 126/35/58 125/34/58
f 126/35/58 127/36/58 125/34/58
f 126/35/59 128/37/59 127/36/59
f 128/37/59 129/38/59 127/36/59
f 128/37/60 130/39/61 129/38/60
f 130/39/61 131/40/61 129/38/60
f 130/39/61 132/41/62 131/40/61
f 132/41/62 133/42/62 131/40/61
f 132/41/63 134/43/63 133/42/63
f 134/43/63 135/44/63 133/42/63
f 134/43/64 136/45/64 135/44/64
f 136/45/64 137/46/64 135/44/64
f 46/47/65 138/48/65 137/46/65
f 136/45/65 46/47/65 137/46/65
f 47/49/66 32/50/66 138/48/66
f 46/47/66 47/49/66 138/48/66
f 47/49/67 139/51/68 32/50/67
f 139/51/68 31/52/68 32/50/67
f 139/51/68 49/53/69 31/52/68
f 49/53/69 34/54/69 31/52/68
f 49/53/70 50/55/70 34/54/70
f 50/55/70 35/56/70 34/54/70
f 50/55/71 51/57/72 35/56/71
f 51/57/72 36/58/72 35/56/71
f 51/57/72 52/59/73 36/58/72
f 52/59/73 37/60/73 36/58/72
f 52/59/74 53/61/75 37/60/74
f 53/61/75 38/62/75 37/60/74
f 53/61/75 54/63/76 38/62/75
f 54/63/76 39/64/76 38/62/75
f 54/63/77 55/65/77 39/64/77
f 55/65/77 40/66/77 39/64/77
f 55/65/78 56/67/79 40/66/78
f 56/67/79 41/68/79 40/66/78
f 56/67/79 57/69/80 41/68/79
f 57/69/80 42/70/80 41/68/79
f 58/71/81 45/72/81 42/70/81
f 57/69/81 58/71/81 42/70/81
f 59/73/82 44/74/82 45/72/82
f 58/71/82 59/73/82 45/72/82
f 79/76/1 61/77/1 125/75/1
f 33/2/1 79/76/1 125/75/1
f 48/17/2 124/80/2 62/78/2
f 48/17/2 126/81/2 124/80/2
f 33/2/1 125/75/1 127/82/1
f 33/2/1 127/82/1 129/83/1
f 33/2/1 129/83/1 131/84/1
f 33/2/1 131/84/1 133/85/1
f 33/2/1 133/85/1 135/86/1
f 33/2/1 135/86/1 137/87/1
f 33/2/1 137/87/1 138/88/1
f 33/2/1 138/88/1 32/3/1
f 33/2/1 42/12/1 45/13/1
f 33/2/1 45/13/1 43/15/1
f 48/17/2 128/89/2 126/81/2
f 48/17/2 130/90/2 128/89/2
f 48/17/2 132/91/2 130/90/2
f 48/17/2 134/92/2 132/91/2
f 48/17/2 136/93/2 134/92/2
f 48/17/2 46/16/2 136/93/2
f 48/17/2 139/94/2 47/18/2
f 48/17/2 49/19/2 139/94/2
f 48/17/2 58/28/2 57/27/2
f 48/17/2 60/29/2 58/28/2
f 43/97/83 44/98/83 59/95/83
f 60/96/83 43/97/83 59/95/83
f 62/100/85 141/101/84 140/99/84
f 141/101/84 142/102/86 140/99/84
f 145/105/87 144/106/87 143/104/87
f 146/103/87 145/105/87 143/104/87
f 148/107/88 147/108/88 144/106/88
f 145/105/88 148/107/88 144/106/88
f 150/109/89 149/110/89 147/108/89
f 148/107/89 150/109/89 147/108/89
f 152/111/90 151/112/90 149/110/90
f 150/109/90 152/111/90 149/110/90
f 154/113/91 153/114/91 151/112/91
f 152/111/91 154/113/91 151/112/91
f 156/115/92 155/116/92 153/114/92
f 154/113/92 156/115/92 153/114/92
f 158/117/93 157/118/93 155/116/93
f 156/115/93 158/117/93 155/116/93
f 160/119/94 159/120/94 157/118/94
f 158/117/94 160/119/94 157/118/94
f 160/119/95 161/121/95 159/120/95
f 161/121/95 162/122/95 159/120/95
f 161/121/96 163/123/96 162/122/96
f 163/123/96 164/124/96 162/122/96
f 163/123/97 165/125/97 164/124/97
f 165/125/97 166/126/97 164/124/97
f 168/127/98 167/128/98 166/126/98
f 165/125/98 168/127/98 166/126/98
f 168/127/99 169/129/100 167/128/99
f 169/129/100 170/130/100 167/128/99
f 169/129/100 171/131/101 170/130/100
f 171/131/101 172/132/101 170/130/100
f 174/133/102 173/134/102 172/132/102
f 171/131/102 174/133/102 172/132/102
f 176/135/103 175/136/103 173/134/103
f 174/133/103 176/135/103 173/134/103
f 178/137/104 177/138/104 175/136/104
f 176/135/104 178/137/104 175/136/104
f 180/139/105 179/140/105 177/138/105
f 178/137/105 180/139/105 177/138/105
f 182/141/106 181/142/106 179/140/106
f 180/139/106 182/141/106 179/140/106

usemtl NoteMaterial

